{"asset":{"version":"2.0","generator":"Blockbench 4.8.1 glTF exporter"},"scenes":[{"nodes":[3],"name":"blockbench_export"}],"scene":0,"nodes":[{"translation":[0,-0.4375,-0.078125],"name":"Base","mesh":0},{"translation":[0,-0.4375,-0.078125],"name":"ButtonBase","mesh":1},{"translation":[0,-0.4375,-0.078125],"name":"Button","mesh":2},{"children":[0,1,2]}],"bufferViews":[{"buffer":0,"byteOffset":0,"byteLength":288,"target":34962,"byteStride":12},{"buffer":0,"byteOffset":288,"byteLength":288,"target":34962,"byteStride":12},{"buffer":0,"byteOffset":576,"byteLength":192,"target":34962,"byteStride":8},{"buffer":0,"byteOffset":768,"byteLength":72,"target":34963},{"buffer":0,"byteOffset":840,"byteLength":672,"target":34962,"byteStride":12},{"buffer":0,"byteOffset":1512,"byteLength":672,"target":34962,"byteStride":12},{"buffer":0,"byteOffset":2184,"byteLength":448,"target":34962,"byteStride":8},{"buffer":0,"byteOffset":2632,"byteLength":168,"target":34963},{"buffer":0,"byteOffset":2800,"byteLength":672,"target":34962,"byteStride":12},{"buffer":0,"byteOffset":3472,"byteLength":672,"target":34962,"byteStride":12},{"buffer":0,"byteOffset":4144,"byteLength":448,"target":34962,"byteStride":8},{"buffer":0,"byteOffset":4592,"byteLength":168,"target":34963}],"buffers":[{"byteLength":4760,"uri":"data:application/octet-stream;base64,"}],"accessors":[{"bufferView":0,"componentType":5126,"count":24,"max":[0.1875,0.625,0.09375],"min":[-0.1875,0.25,0.0625],"type":"VEC3"},{"bufferView":1,"componentType":5126,"count":24,"max":[1,1,1],"min":[-1,-1,-1],"type":"VEC3"},{"bufferView":2,"componentType":5126,"count":24,"max":[1,1],"min":[0,0],"type":"VEC2"},{"bufferView":3,"componentType":5123,"count":36,"max":[23],"min":[0],"type":"SCALAR"},{"bufferView":4,"componentType":5126,"count":56,"max":[0.125,0.5625,0.0625],"min":[-0.125,0.3125,0.03750000149011612],"type":"VEC3"},{"bufferView":5,"componentType":5126,"count":56,"max":[0.8571428656578064,0.8571428656578064,1],"min":[-0.8571428656578064,-0.8571428656578064,-1],"type":"VEC3"},{"bufferView":6,"componentType":5126,"count":56,"max":[0.875,0.5625],"min":[0,0],"type":"VEC2"},{"bufferView":7,"componentType":5123,"count":84,"max":[55],"min":[0],"type":"SCALAR"},{"bufferView":8,"componentType":5126,"count":56,"max":[0.10000000149011612,0.5375000238418579,0.03750000149011612],"min":[-0.10000000149011612,0.3375000059604645,-0.01875000074505806],"type":"VEC3"},{"bufferView":9,"componentType":5126,"count":56,"max":[0.9486833214759827,0.9503672122955322,1],"min":[-0.9701424837112427,-0.9486833214759827,-1],"type":"VEC3"},{"bufferView":10,"componentType":5126,"count":56,"max":[0.75,0.9375],"min":[0,0],"type":"VEC2"},{"bufferView":11,"componentType":5123,"count":84,"max":[55],"min":[0],"type":"SCALAR"}],"materials":[{"pbrMetallicRoughness":{"metallicFactor":0,"roughnessFactor":1,"baseColorTexture":{"index":0}},"alphaMode":"MASK","alphaCutoff":0.05,"doubleSided":true},{"pbrMetallicRoughness":{"metallicFactor":0,"roughnessFactor":1,"baseColorTexture":{"index":1}},"alphaMode":"MASK","alphaCutoff":0.05,"doubleSided":true},{"pbrMetallicRoughness":{"metallicFactor":0,"roughnessFactor":1,"baseColorTexture":{"index":2}},"alphaMode":"MASK","alphaCutoff":0.05,"doubleSided":true}],"textures":[{"sampler":0,"source":0,"name":"baseplate.png"},{"sampler":1,"source":1,"name":"buttonbase.png"},{"sampler":2,"source":2,"name":"Button.png"}],"samplers":[{"magFilter":9728,"minFilter":9728,"wrapS":33071,"wrapT":33071},{"magFilter":9728,"minFilter":9728,"wrapS":33071,"wrapT":33071},{"magFilter":9728,"minFilter":9728,"wrapS":33071,"wrapT":33071}],"images":[{"mimeType":"image/png","uri":"file:///D:/textures/button/baseplate.png?8"},{"mimeType":"image/png","uri":"file:///D:/textures/button/buttonbase.png?10"},{"mimeType":"image/png","uri":"file:///D:/textures/button/Button.png?9"}],"meshes":[{"primitives":[{"mode":4,"attributes":{"POSITION":0,"NORMAL":1,"TEXCOORD_0":2},"indices":3,"material":0}]},{"primitives":[{"mode":4,"attributes":{"POSITION":4,"NORMAL":5,"TEXCOORD_0":6},"indices":7,"material":1}]},{"primitives":[{"mode":4,"attributes":{"POSITION":8,"NORMAL":9,"TEXCOORD_0":10},"indices":11,"material":2}]}]}